<svg width="20" height="12" viewBox="0 0 20 12" fill="none" xmlns="http://www.w3.org/2000/svg">
<path id="Vector" d="M6.66667 11.0001C6.66667 10.7791 6.75446 10.5671 6.91074 10.4108C7.06702 10.2545 7.27899 10.1667 7.5 10.1667H12.5C12.721 10.1667 12.933 10.2545 13.0893 10.4108C13.2455 10.5671 13.3333 10.7791 13.3333 11.0001C13.3333 11.2211 13.2455 11.4331 13.0893 11.5893C12.933 11.7456 12.721 11.8334 12.5 11.8334H7.5C7.27899 11.8334 7.06702 11.7456 6.91074 11.5893C6.75446 11.4331 6.66667 11.2211 6.66667 11.0001ZM3.33333 6.00008C3.33333 5.77907 3.42113 5.56711 3.57741 5.41083C3.73369 5.25455 3.94565 5.16675 4.16667 5.16675H15.8333C16.0543 5.16675 16.2663 5.25455 16.4226 5.41083C16.5789 5.56711 16.6667 5.77907 16.6667 6.00008C16.6667 6.2211 16.5789 6.43306 16.4226 6.58934C16.2663 6.74562 16.0543 6.83342 15.8333 6.83342H4.16667C3.94565 6.83342 3.73369 6.74562 3.57741 6.58934C3.42113 6.43306 3.33333 6.2211 3.33333 6.00008ZM0 1.00008C0 0.779068 0.0877975 0.567106 0.244078 0.410826C0.400358 0.254546 0.61232 0.166748 0.833333 0.166748H19.1667C19.3877 0.166748 19.5996 0.254546 19.7559 0.410826C19.9122 0.567106 20 0.779068 20 1.00008C20 1.2211 19.9122 1.43306 19.7559 1.58934C19.5996 1.74562 19.3877 1.83341 19.1667 1.83341H0.833333C0.61232 1.83341 0.400358 1.74562 0.244078 1.58934C0.0877975 1.43306 0 1.2211 0 1.00008Z" fill="black"/>
</svg>
