<svg width="24" height="25" viewBox="0 0 24 25" fill="none" xmlns="http://www.w3.org/2000/svg">
<g id="dislike">
<path id="Vector" fill-rule="evenodd" clip-rule="evenodd" d="M12.7525 23.2972C13.8129 23.3422 15.0052 22.8426 15.388 21.504C15.5294 21.0096 15.5132 20.5744 15.46 20.2154C15.4357 20.0508 15.4035 19.9023 15.3752 19.7714L15.3746 19.7687C15.3643 19.7211 15.3546 19.676 15.3458 19.6332C15.2643 19.2339 15.2073 18.8452 15.388 18.2134C15.445 18.014 15.5197 17.8072 15.6063 17.5988C15.8251 17.0726 16.1208 16.5347 16.4059 16.0706C16.6004 15.7539 16.7812 15.4854 16.913 15.2969C16.9788 15.2028 17.0318 15.1292 17.0678 15.08C17.0858 15.0554 17.0995 15.0369 17.1084 15.0251L17.118 15.0123L17.12 15.0096C17.4228 14.6104 17.3449 14.0414 16.9459 13.7382C16.5466 13.435 15.9772 13.5128 15.674 13.9119L15.676 13.9095L15.6724 13.9139L15.6717 13.9149L15.6675 13.9205L15.6532 13.9395C15.6412 13.9557 15.6241 13.9787 15.6026 14.0081C15.5596 14.0669 15.4988 14.1513 15.4249 14.2571C15.2773 14.4682 15.076 14.767 14.859 15.1204C14.4338 15.8124 13.9119 16.7718 13.6425 17.7144C13.3527 18.7278 13.4527 19.4361 13.5672 19.9965L13.5934 20.1244C13.6856 20.5706 13.7188 20.7382 13.6425 21.005C13.5967 21.1653 13.5105 21.2871 13.3821 21.3677C13.2524 21.4493 13.0717 21.4937 12.8295 21.4834C12.3186 21.4617 11.7828 21.1788 11.5156 20.7635C11.2256 20.3126 11.0837 19.737 11.0446 19.085C11.0055 18.4335 11.0694 17.7114 11.186 16.9725C11.3333 16.0384 11.1453 15.085 10.4398 14.4824C9.71891 13.8665 8.74212 13.8563 7.84183 14.2118C7.10124 14.504 6.33613 14.774 5.63137 14.9194C4.906 15.0692 4.37212 15.0588 4.02542 14.9241C3.82442 14.846 3.65302 14.7346 3.51029 14.5647C3.367 14.3939 3.24901 14.1598 3.16187 13.831C2.97341 13.12 2.95292 12.031 3.18402 10.4143C3.64087 7.21829 4.52933 5.55961 5.57717 4.67106C6.62014 3.78666 7.99456 3.51536 9.81148 3.51538C11.8587 3.5154 12.9842 3.8902 13.7409 4.33162C14.129 4.55802 14.4499 4.81905 14.7738 5.1108C14.8676 5.19529 14.9679 5.28848 15.0734 5.3864L15.0744 5.3873C15.3076 5.60391 15.5652 5.84313 15.8234 6.05355C16.212 6.37024 16.7838 6.31194 17.1004 5.92332C17.4171 5.5347 17.3588 4.96292 16.9702 4.64624C16.7568 4.47229 16.5718 4.30023 16.3622 4.10518C16.2478 3.99878 16.1258 3.88524 15.9886 3.76178C15.622 3.43155 15.1964 3.07892 14.6557 2.7635C13.5548 2.1213 12.0932 1.69996 9.81149 1.69995C7.86539 1.69994 5.94718 1.97706 4.40306 3.28642C2.86381 4.59165 1.87078 6.7721 1.38688 10.1574C1.1448 11.8508 1.12441 13.2298 1.40705 14.2961C1.70515 15.4209 2.35171 16.2213 3.36773 16.6162C4.20422 16.9413 5.15668 16.8711 5.99834 16.6974C6.86057 16.5195 7.74308 16.2024 8.50832 15.9004C9.01788 15.6993 9.21709 15.8254 9.26065 15.8627C9.31931 15.9128 9.48158 16.1261 9.39271 16.6898C9.1597 18.1673 8.99977 20.208 9.98882 21.7456C10.6116 22.7138 11.7222 23.2534 12.7525 23.2972ZM20.2437 16.7051C21.6556 16.7051 22.8002 15.5606 22.8002 14.1488V5.35551C22.8002 3.94363 21.6556 2.79907 20.2437 2.79907C18.8319 2.79907 17.6874 3.94363 17.6874 5.35551V14.1488C17.6874 15.5606 18.8319 16.7051 20.2437 16.7051ZM20.9848 14.1488C20.9848 14.558 20.653 14.8898 20.2437 14.8898C19.8345 14.8898 19.5027 14.558 19.5027 14.1488V5.35551C19.5027 4.94626 19.8345 4.6145 20.2437 4.6145C20.653 4.6145 20.9848 4.94626 20.9848 5.35551V14.1488Z" fill="#F93232"/>
</g>
</svg>
