<svg width="24" height="24" viewBox="0 0 24 24" fill="none" xmlns="http://www.w3.org/2000/svg">
<g id="Property 1=Variant4">
<path id="Vector" d="M15.0724 4.88567L15.0734 4.88657L15.0757 4.88876C15.3084 5.10479 15.565 5.34311 15.8224 5.55282C15.936 5.6454 16.0653 5.70593 16.1992 5.73554M15.0724 4.88567L15.0651 4.87888M15.0724 4.88567C15.07 4.8834 15.0651 4.94286 15.0651 4.87888M12.8572 5.31976C12.5673 5.24017 12.2956 5.14739 11.996 5.09174C11.1668 4.93771 10.3446 4.94654 9.50662 5.02201C9.20724 5.04897 8.90866 5.08602 8.6115 5.13131C8.2647 5.18417 7.73401 5.23801 7.42993 5.48936C6.84384 5.97381 6.98318 7.3018 7.19922 7.79922C7.4186 8.30434 7.42001 9.29294 7.68056 9.77707C5.85485 9.62728 8.60768 9.4605 8.64165 9.63521C8.67291 9.79597 8.67011 9.96619 8.68499 10.1289C8.36316 11.7348 8.07085 12.1371 7.92743 11.9992C7.42162 11.5129 6.6609 10.99 6.07574 10.6229C5.64056 10.35 5.98654 8.64779 5.76594 8.16343C5.56021 7.71173 5.57326 7.04126 5.68679 6.56728C5.8207 6.0082 6.2856 5.80365 6.78732 5.64766C7.18422 5.52425 7.53405 5.30499 7.92743 5.17654C8.28323 5.06036 8.66073 5.0532 9.01666 4.94286C9.41367 4.81979 9.7739 4.6222 10.185 4.54335C10.2603 4.52891 10.334 4.51716 10.4086 4.51081M10.4086 4.51081C10.4473 4.50751 10.4864 4.50566 10.5261 4.50566C10.7675 4.50566 10.6682 4.50772 10.4086 4.51081ZM10.4086 4.51081C9.93231 4.51648 8.91661 4.52564 8.47393 4.53205C7.87009 4.54078 7.20254 4.41016 6.6686 4.75065C6.33142 4.96566 6.00485 5.30188 5.79609 5.64012C5.54733 6.04317 5.48971 6.48602 5.46254 6.94795M5.36078 8.06758C4.78195 8.38331 4.27839 8.72132 4.2904 9.43571C4.29749 9.8579 4.60635 10.212 4.67483 10.6229C4.74069 11.0181 4.67607 11.3375 4.59942 11.7163L4.59568 11.7348C4.51826 12.1176 4.71965 12.4031 5.0668 12.5639C5.41493 12.7253 5.666 12.5367 5.99019 12.4019C6.2136 12.309 6.40032 12.2865 6.5593 12.0891C6.67642 11.9436 6.77942 11.7819 6.8872 11.6292M4.64844 12.9793C4.47009 13.1577 4.20353 13.3642 4.26778 13.6427C4.3077 13.8156 4.45427 13.834 4.61075 13.8443C5.07932 13.8751 5.4843 13.8336 5.93177 13.7124C6.11214 13.6635 6.26247 13.5798 6.43493 13.5145C6.98536 13.3063 7.63225 13.4209 8.16111 13.1565C8.50104 12.9865 8.90658 12.6827 9.1693 12.414C9.94652 11.6191 10.6396 10.3884 10.5393 9.2443C10.5146 8.9621 10.3261 9.84878 10.1992 9.59922C10.088 9.38052 9.59922 8.99922 9.91744 7.7631C9.82914 7.65191 8.9076 8.08761 8.88508 7.94683C8.85012 7.72833 8.05727 6.35237 8.16111 6.17132C8.37304 5.80179 11.7979 7.32572 11.996 6.94795C12.1157 6.71977 10.4558 5.08901 10.6901 4.94016C10.8616 4.83121 11.0998 4.84027 11.2931 4.83086C11.604 4.81573 11.9281 4.78185 12.2391 4.81013C12.6529 4.84775 12.9533 5.16314 13.253 5.41505C13.5843 5.69353 13.9376 5.88469 14.3196 6.07838C14.5357 6.18797 14.6218 6.48684 14.8152 6.63996C14.8958 6.70375 14.3579 10.0959 14.3992 10.1992M15.1638 7.79629V13.1557M13.2643 6.74453C13.0301 8.17689 10.7919 9.94694 10.7992 11.3992C10.8006 11.6819 12.9233 11.5951 12.9251 11.8778C12.926 12.0284 14.3319 13.3875 14.3196 13.2375C14.2376 12.2417 13.0557 10.647 12.9251 9.65665C12.9029 9.48887 12.5083 8.11373 12.4803 7.94683C13.6415 8.31019 12.4923 7.78665 12.437 7.78665C12.3823 7.78665 12.4065 7.89238 12.4012 7.94683C12.371 8.2532 11.4047 7.83689 11.3992 8.06758C11.369 9.33996 12.3823 14.4132 12.3823 13.1404L13.4083 14.5089M10.1436 12.5793C10.3844 13.0128 10.7788 13.3842 11.1273 13.7326M12.2127 14.207C12.2697 15.09 12.2976 15.9625 12.2485 16.8453C12.231 17.1605 12.2288 17.4926 12.2485 17.8083C12.2784 18.2868 12.4365 18.7632 12.5444 19.2273C12.5772 19.3685 12.4678 19.694 12.6198 19.77M14.4176 14.8176C14.1135 15.2104 14.0087 15.6958 13.9427 16.1744M16.1992 5.15898V5.73554M16.1992 13.679V13.0741M16.1992 13.0741C15.9967 13.1189 15.8083 13.233 15.673 13.4111L15.6751 13.4087L15.6715 13.4132L15.6707 13.4141L15.6665 13.4198L15.6523 13.4387C15.6403 13.4549 15.6231 13.478 15.6016 13.5074C15.5587 13.5662 15.4978 13.6505 15.4239 13.7564C15.2763 13.9675 15.0751 14.2663 14.858 14.6197C14.4328 15.3117 13.9109 16.2711 13.6415 17.2137C13.3517 18.2271 13.4517 18.9353 13.5662 19.4957L13.5925 19.6237C13.6846 20.0698 13.7179 20.2375 13.6415 20.5042C13.5957 20.6645 13.5095 20.7863 13.3811 20.867C13.2514 20.9486 13.0707 20.993 12.8285 20.9827C12.3176 20.9609 11.7818 20.6781 11.5147 20.2628C11.2246 19.8118 11.0827 19.2363 11.0436 18.5842C11.0045 17.9327 11.0685 17.2107 11.185 16.4717C11.3323 15.5377 11.1443 14.5843 10.4388 13.9816C9.71793 13.3658 8.74114 13.3556 7.84086 13.711C7.10026 14.0032 6.33516 14.2732 5.6304 14.4187C4.90502 14.5684 4.37114 14.5581 4.02445 14.4233C3.82345 14.3452 3.65204 14.2339 3.50931 14.0639C3.36602 13.8932 3.24804 13.6591 3.16089 13.3303C2.97243 12.6193 2.95195 11.5302 3.18304 9.91354C3.6399 6.71755 4.52835 5.05888 5.57619 4.17032C6.61916 3.28592 7.99358 3.01463 9.8105 3.01465C11.8578 3.01466 12.9832 3.38947 13.7399 3.83089C14.128 4.05728 14.4489 4.31832 14.7728 4.61006C14.8644 4.6926 15.462 4.94286 15.0651 4.87888M16.1992 13.0741V5.73554M16.1992 13.0741C16.4506 13.0185 16.7238 13.0696 16.9449 13.2375C17.3439 13.5406 17.4218 14.1097 17.119 14.5089L17.117 14.5115L17.1074 14.5244C17.0985 14.5361 17.0848 14.5546 17.0668 14.5792C17.0308 14.6284 16.9778 14.7021 16.912 14.7962C16.7803 14.9847 16.5994 15.2531 16.4049 15.5698C16.1198 16.034 15.8241 16.5718 15.6053 17.098C15.5187 17.3065 15.4441 17.5132 15.3871 17.7127C15.2063 18.3445 15.2633 18.7331 15.3448 19.1325C15.3536 19.1752 15.3633 19.2203 15.3736 19.268L15.3742 19.2706C15.4025 19.4015 15.4347 19.5501 15.4591 19.7146C15.5122 20.0737 15.5284 20.5089 15.3871 21.0033C15.0043 22.3419 13.8119 22.8415 12.7515 22.7965C11.7213 22.7527 10.6106 22.213 9.98785 21.2449C8.9988 19.7073 9.15872 17.6666 9.39174 16.189C9.48061 15.6254 9.31833 15.412 9.25968 15.362C9.21612 15.3247 9.0169 15.1985 8.50735 15.3997C7.74211 15.7017 6.85959 16.0187 5.99737 16.1967C5.1557 16.3703 4.20325 16.4405 3.36675 16.1155C2.35074 15.7205 1.70418 14.9201 1.40607 13.7954C1.12343 12.7291 1.14383 11.3501 1.3859 9.65665C1.8698 6.27137 2.86284 4.09092 4.40209 2.78569C5.9462 1.47632 7.86441 1.1992 9.81051 1.19922C12.0922 1.19923 13.5538 1.62056 14.6547 2.26277C15.1954 2.57819 15.6211 2.93082 15.9877 3.26105C16.1248 3.3845 16.2469 3.49805 16.3612 3.60445C16.5709 3.7995 16.7558 3.97156 16.9693 4.14551C17.3578 4.46219 17.4161 5.03396 17.0995 5.42258C16.8754 5.6976 16.5235 5.80719 16.1992 5.73554M20.2427 16.2044C21.6547 16.2044 22.7992 15.0598 22.7992 13.648V4.85478C22.7992 3.4429 21.6547 2.29834 20.2427 2.29834C18.8309 2.29834 17.6864 3.4429 17.6864 4.85478V13.648C17.6864 15.0598 18.8309 16.2044 20.2427 16.2044ZM20.9839 13.648C20.9839 14.0572 20.6521 14.389 20.2427 14.389C19.8335 14.389 19.5017 14.0572 19.5017 13.648V4.85478C19.5017 4.44553 19.8335 4.11377 20.2427 4.11377C20.6521 4.11377 20.9839 4.44553 20.9839 4.85478V13.648Z" stroke="#F93232" stroke-width="2" stroke-linecap="round"/>
</g>
</svg>
