<svg width="28" height="27" viewBox="0 0 28 27" fill="none" xmlns="http://www.w3.org/2000/svg">
<g id="Vector">
<path d="M0 2.33335C0 2.11233 0.0877992 1.90037 0.244083 1.74408C0.400366 1.5878 0.612332 1.5 0.83335 1.5H3.3334C3.51929 1.50005 3.69982 1.56225 3.8463 1.67671C3.99277 1.79117 4.09676 1.95132 4.14175 2.13168L4.81676 4.8334H24.1672C24.2904 4.83348 24.4121 4.86088 24.5235 4.91366C24.6348 4.96643 24.7331 5.04324 24.8112 5.13857C24.8894 5.2339 24.9454 5.34537 24.9752 5.46495C25.005 5.58452 25.008 5.70923 24.9838 5.83009L23.3171 14.1636C23.2807 14.3453 23.1847 14.5097 23.0443 14.6307C22.9039 14.7518 22.7272 14.8226 22.5421 14.8319L6.88014 15.6186L7.35848 18.167H21.6671C21.8881 18.167 22.1001 18.2548 22.2564 18.4111C22.4127 18.5674 22.5005 18.7793 22.5005 19.0004C22.5005 19.2214 22.4127 19.4333 22.2564 19.5896C22.1001 19.7459 21.8881 19.8337 21.6671 19.8337H6.6668C6.47252 19.8335 6.2844 19.7655 6.13497 19.6413C5.98555 19.5171 5.8842 19.3447 5.84845 19.1537L3.35007 5.84509L2.68339 3.1667H0.83335C0.612332 3.1667 0.400366 3.0789 0.244083 2.92262C0.0877992 2.76633 0 2.55437 0 2.33335ZM5.1701 6.5001L6.57013 13.9653L21.8104 13.2002L23.1505 6.5001H5.1701ZM8.3335 19.8337C7.44943 19.8337 6.60156 20.1849 5.97643 20.81C5.3513 21.4352 5.0001 22.283 5.0001 23.1671C5.0001 24.0512 5.3513 24.899 5.97643 25.5242C6.60156 26.1493 7.44943 26.5005 8.3335 26.5005C9.21757 26.5005 10.0654 26.1493 10.6906 25.5242C11.3157 24.899 11.6669 24.0512 11.6669 23.1671C11.6669 22.283 11.3157 21.4352 10.6906 20.81C10.0654 20.1849 9.21757 19.8337 8.3335 19.8337ZM20.0004 19.8337C19.1163 19.8337 18.2685 20.1849 17.6433 20.81C17.0182 21.4352 16.667 22.283 16.667 23.1671C16.667 24.0512 17.0182 24.899 17.6433 25.5242C18.2685 26.1493 19.1163 26.5005 20.0004 26.5005C20.8845 26.5005 21.7323 26.1493 22.3575 25.5242C22.9826 24.899 23.3338 24.0512 23.3338 23.1671C23.3338 22.283 22.9826 21.4352 22.3575 20.81C21.7323 20.1849 20.8845 19.8337 20.0004 19.8337ZM8.3335 21.5004C8.77554 21.5004 9.19947 21.676 9.51204 21.9886C9.8246 22.3011 10.0002 22.7251 10.0002 23.1671C10.0002 23.6091 9.8246 24.0331 9.51204 24.3456C9.19947 24.6582 8.77554 24.8338 8.3335 24.8338C7.89146 24.8338 7.46753 24.6582 7.15497 24.3456C6.8424 24.0331 6.6668 23.6091 6.6668 23.1671C6.6668 22.7251 6.8424 22.3011 7.15497 21.9886C7.46753 21.676 7.89146 21.5004 8.3335 21.5004ZM20.0004 21.5004C20.4424 21.5004 20.8664 21.676 21.1789 21.9886C21.4915 22.3011 21.6671 22.7251 21.6671 23.1671C21.6671 23.6091 21.4915 24.0331 21.1789 24.3456C20.8664 24.6582 20.4424 24.8338 20.0004 24.8338C19.5584 24.8338 19.1344 24.6582 18.8219 24.3456C18.5093 24.0331 18.3337 23.6091 18.3337 23.1671C18.3337 22.7251 18.5093 22.3011 18.8219 21.9886C19.1344 21.676 19.5584 21.5004 20.0004 21.5004Z" fill="black"/>
<path d="M7.1616 11.1333C7.07235 10.5883 7.44183 10.0741 7.98686 9.98488L9.96057 9.66168C10.5056 9.57243 11.0198 9.94191 11.109 10.4869L11.4322 12.4606C11.5215 13.0057 11.152 13.5199 10.607 13.6091L8.63326 13.9323C8.08823 14.0216 7.57405 13.6521 7.4848 13.1071L7.1616 11.1333Z" fill="black"/>
<path d="M28 4.5C28 6.70914 26.2091 8.5 24 8.5C21.7909 8.5 20 6.70914 20 4.5C20 2.29086 21.7909 0.5 24 0.5C26.2091 0.5 28 2.29086 28 4.5Z" fill="#F93232"/>
</g>
</svg>
