<svg width="24" height="25" viewBox="0 0 24 25" fill="none" xmlns="http://www.w3.org/2000/svg">
<g id="Property 1=Vector">
<path id="Vector" d="M8.92758 19.6143L8.92662 19.6134L8.92426 19.6112C8.69161 19.3952 8.43495 19.1569 8.17758 18.9472C8.06399 18.8546 7.93474 18.7941 7.80078 18.7645M8.92758 19.6143L8.9349 19.6211M8.92758 19.6143C8.93002 19.6166 8.9349 19.5571 8.9349 19.6211M11.1428 19.1802C11.4327 19.2598 11.7044 19.3526 12.004 19.4083C12.8332 19.5623 13.6554 19.5535 14.4934 19.478C14.7928 19.451 15.0913 19.414 15.3885 19.3687C15.7353 19.3158 16.266 19.262 16.5701 19.0106C17.1562 18.5262 17.0168 17.1982 16.8008 16.7008C16.5814 16.1957 16.58 15.2071 16.3194 14.7229C18.1451 14.8727 15.3923 15.0395 15.3584 14.8648C15.3271 14.704 15.3299 14.5338 15.315 14.3711C15.6368 12.7652 15.9292 12.3629 16.0726 12.5008C16.5784 12.9871 17.3391 13.51 17.9243 13.8771C18.3594 14.15 18.0135 15.8522 18.2341 16.3366C18.4398 16.7883 18.4267 17.4587 18.3132 17.9327C18.1793 18.4918 17.7144 18.6963 17.2127 18.8523C16.8158 18.9757 16.466 19.195 16.0726 19.3235C15.7168 19.4396 15.3393 19.4468 14.9833 19.5571C14.5863 19.6802 14.2261 19.8778 13.815 19.9566C13.7397 19.9711 13.666 19.9828 13.5914 19.9892M13.5914 19.9892C13.5527 19.9925 13.5136 19.9943 13.4739 19.9943C13.2325 19.9943 13.3318 19.9923 13.5914 19.9892ZM13.5914 19.9892C14.0677 19.9835 15.0834 19.9744 15.5261 19.968C16.1299 19.9592 16.7975 20.0898 17.3314 19.7494C17.6686 19.5343 17.9952 19.1981 18.2039 18.8599C18.4527 18.4568 18.5103 18.014 18.5375 17.5521M18.6392 16.4324C19.2181 16.1167 19.7216 15.7787 19.7096 15.0643C19.7025 14.6421 19.3937 14.288 19.3252 13.8771C19.2593 13.4819 19.3239 13.1625 19.4006 12.7837L19.4043 12.7652C19.4817 12.3824 19.2804 12.0969 18.9332 11.9361C18.5851 11.7747 18.334 11.9633 18.0098 12.0981C17.7864 12.191 17.5997 12.2135 17.4407 12.4109C17.3236 12.5564 17.2206 12.7181 17.1128 12.8708M19.3516 11.5207C19.5299 11.3423 19.7965 11.1358 19.7322 10.8573C19.6923 10.6844 19.5457 10.666 19.3892 10.6557C18.9207 10.6249 18.5157 10.6664 18.0682 10.7876C17.8879 10.8365 17.7375 10.9202 17.5651 10.9855C17.0146 11.1937 16.3677 11.0791 15.8389 11.3435C15.499 11.5135 15.0934 11.8173 14.8307 12.086C14.0535 12.8809 13.3604 14.1116 13.4607 15.2557C13.4854 15.5379 13.6739 14.6512 13.8008 14.9008C13.912 15.1195 14.4008 15.5008 14.0826 16.7369C14.1709 16.8481 15.0924 16.4124 15.1149 16.5532C15.1499 16.7717 15.9427 18.1476 15.8389 18.3287C15.627 18.6982 12.2021 17.1743 12.004 17.5521C11.8843 17.7802 13.5442 19.411 13.3099 19.5598C13.1384 19.6688 12.9002 19.6597 12.7069 19.6691C12.396 19.6843 12.0719 19.7181 11.7609 19.6899C11.3471 19.6523 11.0467 19.3369 10.747 19.085C10.4157 18.8065 10.0624 18.6153 9.68043 18.4216C9.4643 18.312 9.37822 18.0132 9.18481 17.86C9.10423 17.7962 9.64211 14.4041 9.60078 14.3008M8.83617 16.7037L8.83617 11.3443M10.7357 17.7555C10.9699 16.3231 13.2081 14.5531 13.2008 13.1008C13.1994 12.8181 11.0767 12.9049 11.0749 12.6222C11.074 12.4716 9.66807 11.1125 9.68043 11.2625C9.76243 12.2583 10.9443 13.853 11.0749 14.8433C11.0971 15.0111 11.4917 16.3863 11.5197 16.5532C10.3585 16.1898 11.5077 16.7134 11.563 16.7134C11.6177 16.7134 11.5935 16.6076 11.5988 16.5532C11.629 16.2468 12.5953 16.6631 12.6008 16.4324C12.631 15.16 11.6177 10.0868 11.6177 11.3596L10.5917 9.9911M13.8564 11.9207C13.6156 11.4872 13.2212 11.1158 12.8727 10.7674M11.7873 10.293C11.7303 9.40998 11.7024 8.53752 11.7515 7.6547C11.769 7.33948 11.7712 7.00741 11.7515 6.69173C11.7216 6.21318 11.5635 5.73683 11.4556 5.27272C11.4228 5.1315 11.5322 4.80596 11.3802 4.72999M9.58245 9.68242C9.88653 9.28964 9.99132 8.80424 10.0573 8.3256M7.80078 19.341L7.80078 18.7645M7.80078 10.821L7.80078 11.4259M7.80078 11.4259C8.00334 11.3811 8.19166 11.267 8.32699 11.0889L8.32495 11.0913L8.32855 11.0868L8.32927 11.0859L8.33347 11.0802L8.34775 11.0613C8.35975 11.0451 8.37691 11.022 8.39839 10.9926C8.44135 10.9338 8.50219 10.8495 8.57611 10.7436C8.72371 10.5325 8.92494 10.2337 9.14202 9.88034C9.56718 9.1883 10.0891 8.2289 10.3585 7.2863C10.6483 6.2729 10.5483 5.56466 10.4338 5.00426L10.4075 4.87634C10.3154 4.43018 10.2821 4.26254 10.3585 3.99578C10.4043 3.83546 10.4905 3.71366 10.6189 3.63302C10.7486 3.55142 10.9293 3.50702 11.1715 3.51734C11.6824 3.53906 12.2182 3.8219 12.4853 4.23722C12.7754 4.68818 12.9173 5.2637 12.9564 5.91578C12.9955 6.56726 12.9315 7.2893 12.815 8.02826C12.6677 8.96234 12.8557 9.91574 13.5612 10.5184C14.2821 11.1342 15.2589 11.1444 16.1591 10.789C16.8997 10.4968 17.6648 10.2268 18.3696 10.0813C19.095 9.93158 19.6289 9.9419 19.9756 10.0767C20.1766 10.1548 20.348 10.2661 20.4907 10.4361C20.634 10.6068 20.752 10.8409 20.8391 11.1697C21.0276 11.8807 21.0481 12.9698 20.817 14.5865C20.3601 17.7824 19.4716 19.4411 18.4238 20.3297C17.3808 21.2141 16.0064 21.4854 14.1895 21.4853C12.1422 21.4853 11.0168 21.1105 10.2601 20.6691C9.87198 20.4427 9.5511 20.1817 9.22722 19.8899C9.13555 19.8074 8.53803 19.5571 8.9349 19.6211M7.80078 11.4259L7.80078 18.7645M7.80078 11.4259C7.54944 11.4815 7.27618 11.4304 7.05511 11.2625C6.65611 10.9594 6.57822 10.3903 6.88098 9.9911L6.88303 9.98846L6.89263 9.97562C6.90151 9.96386 6.91519 9.94538 6.93319 9.92078C6.96919 9.87158 7.02223 9.7979 7.08799 9.70382C7.21975 9.5153 7.40059 9.24686 7.59511 8.93018C7.88023 8.46602 8.17591 7.92818 8.39467 7.40198C8.48131 7.19354 8.55595 6.98678 8.61295 6.78734C8.79367 6.15554 8.73667 5.76686 8.65519 5.3675C8.64643 5.32478 8.63671 5.27966 8.62639 5.23202L8.62579 5.22938C8.59747 5.09846 8.56531 4.9499 8.54095 4.78538C8.48779 4.42634 8.47159 3.9911 8.61295 3.4967C8.99575 2.1581 10.1881 1.65854 11.2485 1.70354C12.2787 1.74734 13.3894 2.28698 14.0122 3.25514C15.0012 4.7927 14.8413 6.83342 14.6083 8.31098C14.5194 8.87462 14.6817 9.08798 14.7403 9.13802C14.7839 9.17534 14.9831 9.30146 15.4927 9.10034C16.2579 8.7983 17.1404 8.48126 18.0026 8.3033C18.8443 8.12966 19.7968 8.05946 20.6332 8.38454C21.6493 8.77946 22.2958 9.57986 22.5939 10.7046C22.8766 11.7709 22.8562 13.1499 22.6141 14.8433C22.1302 18.2286 21.1372 20.4091 19.5979 21.7143C18.0538 23.0237 16.1356 23.3008 14.1895 23.3008C11.9078 23.3008 10.4462 22.8794 9.3453 22.2372C8.80458 21.9218 8.37894 21.5692 8.01234 21.239C7.87518 21.1155 7.75314 21.002 7.63878 20.8955C7.42914 20.7005 7.24422 20.5284 7.03074 20.3545C6.64218 20.0378 6.58386 19.466 6.90054 19.0774C7.12465 18.8024 7.47651 18.6928 7.80078 18.7645M3.75726 8.29562C2.34534 8.29562 1.20078 9.44018 1.20078 10.852L1.20078 19.6452C1.20078 21.0571 2.34534 22.2017 3.75726 22.2017C5.16906 22.2017 6.31362 21.0571 6.31362 19.6452L6.31363 10.852C6.31363 9.44018 5.16906 8.29562 3.75726 8.29562ZM3.01614 10.852C3.01614 10.4428 3.34794 10.111 3.75726 10.111C4.16646 10.111 4.49827 10.4428 4.49827 10.852L4.49826 19.6452C4.49826 20.0545 4.16646 20.3862 3.75726 20.3862C3.34794 20.3862 3.01614 20.0545 3.01614 19.6452L3.01614 10.852Z" stroke="#5A9055" stroke-width="1.92" stroke-linecap="round"/>
</g>
</svg>
