<svg width="24" height="25" viewBox="0 0 24 25" fill="none" xmlns="http://www.w3.org/2000/svg">
<g id="like">
<path id="Vector" fill-rule="evenodd" clip-rule="evenodd" d="M11.2479 1.70272C10.1875 1.65769 8.99509 2.15725 8.61239 3.49588C8.47104 3.99033 8.48717 4.42548 8.54035 4.78454C8.56473 4.94905 8.59687 5.0976 8.62522 5.22856L8.62577 5.23116C8.6361 5.27888 8.64585 5.3239 8.65458 5.36667C8.73612 5.766 8.79301 6.1547 8.61239 6.78651C8.55537 6.98599 8.48077 7.19266 8.39409 7.40119C8.17536 7.92732 7.87962 8.46525 7.59454 8.92935C7.40001 9.24606 7.21912 9.51451 7.0874 9.70303C7.02168 9.7971 6.96856 9.87073 6.93256 9.91995C6.91456 9.94454 6.90088 9.96301 6.89206 9.97482L6.88245 9.98766L6.88044 9.99031C6.57765 10.3895 6.65552 10.9586 7.05454 11.2617C7.45373 11.5649 8.02313 11.4872 8.32638 11.088L8.32431 11.0905L8.32791 11.086L8.32866 11.085L8.33294 11.0794L8.34712 11.0604C8.3592 11.0442 8.37629 11.0212 8.39781 10.9918C8.44081 10.933 8.50162 10.8486 8.57554 10.7428C8.7231 10.5317 8.9244 10.2329 9.14144 9.87955C9.56656 9.18745 10.0884 8.22802 10.3579 7.28553C10.6476 6.27202 10.5477 5.56387 10.4333 5.00343L10.407 4.87557C10.3148 4.4293 10.2816 4.26174 10.3579 3.9949C10.4037 3.8346 10.4899 3.71283 10.6183 3.63214C10.748 3.55063 10.9287 3.50624 11.1708 3.51652C11.6818 3.53822 12.2176 3.8211 12.4848 4.23642C12.7748 4.68736 12.9168 5.26292 12.9559 5.9149C12.9949 6.56644 12.9309 7.28844 12.8144 8.02738C12.6672 8.96149 12.8551 9.91496 13.5606 10.5176C14.2815 11.1334 15.2583 11.1435 16.1586 10.7882C16.8992 10.4959 17.6642 10.2259 18.3691 10.0805C19.0944 9.93075 19.6282 9.94108 19.9749 10.0758C20.1759 10.154 20.3474 10.2653 20.4901 10.4353C20.6334 10.606 20.7514 10.8401 20.8386 11.1689C21.027 11.8799 21.0475 12.9689 20.8164 14.5857C20.3595 17.7816 19.471 19.4403 18.4232 20.3289C17.3803 21.2133 16.0058 21.4846 14.1889 21.4845C12.1417 21.4845 11.0162 21.1097 10.2595 20.6682C9.87136 20.4419 9.55053 20.1809 9.22657 19.8891C9.13277 19.8046 9.03241 19.7115 8.92699 19.6136L8.92602 19.6126C8.69281 19.396 8.43526 19.1568 8.17704 18.9464C7.78842 18.6297 7.21666 18.688 6.89997 19.0766C6.58329 19.4652 6.64159 20.037 7.03021 20.3537C7.24367 20.5276 7.42861 20.6997 7.63823 20.8947C7.75258 21.0011 7.87462 21.1146 8.01169 21.2381C8.37839 21.5684 8.80399 21.921 9.3447 22.2364C10.4456 22.8786 11.9072 23.3 14.1889 23.3C16.135 23.3 18.0532 23.0229 19.5973 21.7134C21.1365 20.4083 22.1296 18.2278 22.6135 14.8425C22.8556 13.149 22.876 11.7701 22.5933 10.7038C22.2952 9.579 21.6487 8.77864 20.6326 8.38374C19.7961 8.0586 18.8437 8.1288 18.002 8.30252C17.1398 8.48048 16.2573 8.79751 15.4921 9.09954C14.9826 9.30066 14.7834 9.17445 14.7398 9.13724C14.6811 9.08713 14.5188 8.87377 14.6077 8.31019C14.8407 6.83265 15.0006 4.7919 14.0115 3.25429C13.3888 2.28609 12.2781 1.74649 11.2479 1.70272ZM3.75662 8.29473C2.34474 8.29473 1.2002 9.43929 1.2002 10.8512V19.6444C1.2002 21.0563 2.34474 22.2009 3.75662 22.2009C5.16849 22.2009 6.31304 21.0563 6.31304 19.6444V10.8512C6.31304 9.43929 5.16849 8.29473 3.75662 8.29473ZM3.01562 10.8512C3.01562 10.4419 3.34737 10.1102 3.75662 10.1102C4.16586 10.1102 4.49763 10.4419 4.49763 10.8512V19.6444C4.49763 20.0536 4.16586 20.3854 3.75662 20.3854C3.34737 20.3854 3.01562 20.0536 3.01562 19.6444V10.8512Z" fill="#5A9055"/>
</g>
</svg>
