<svg width="43" height="41" viewBox="0 0 43 41" fill="none" xmlns="http://www.w3.org/2000/svg">
<path id="Star 1" d="M20.7769 1.82389C21.1185 1.0026 22.2819 1.00259 22.6235 1.82389L26.9203 12.1547C27.3524 13.1934 28.3292 13.9031 29.4506 13.993L40.6035 14.8871C41.4902 14.9582 41.8497 16.0647 41.1741 16.6434L32.6768 23.9223C31.8224 24.6541 31.4493 25.8025 31.7103 26.8967L34.3064 37.7801C34.5128 38.6453 33.5715 39.3292 32.8124 38.8655L23.264 33.0334C22.3039 32.447 21.0965 32.447 20.1364 33.0334L10.588 38.8655C9.82886 39.3292 8.8876 38.6453 9.09399 37.7801L11.6901 26.8967C11.9511 25.8025 11.578 24.6541 10.7236 23.9223L2.22625 16.6434C1.55071 16.0647 1.91024 14.9582 2.79689 14.8871L13.9498 13.993C15.0712 13.9031 16.048 13.1934 16.4801 12.1547L20.7769 1.82389Z" stroke="#9F9F9F" stroke-opacity="0.623529" stroke-width="2"/>
</svg>
